<svg width="111" height="40" viewBox="0 0 111 40" fill="none" xmlns="http://www.w3.org/2000/svg">
<g clip-path="url(#clip0_209_1608)">
<path d="M106.909 0H4.63773C2.37841 0 0.546875 2.14658 0.546875 4.79452V33.5616C0.546875 36.2096 2.37841 38.3562 4.63773 38.3562H106.909C109.168 38.3562 111 36.2096 111 33.5616V4.79452C111 2.14658 109.168 0 106.909 0Z" fill="black"/>
<path d="M4.6377 0.273438H106.909C107.906 0.273587 108.873 0.737725 109.594 1.58203C110.315 2.42779 110.727 3.58326 110.727 4.79492V33.5615C110.727 34.7733 110.315 35.9286 109.594 36.7744C108.873 37.6187 107.906 38.0829 106.909 38.083H4.6377C3.64055 38.083 2.6736 37.6188 1.95312 36.7744C1.23149 35.9286 0.820312 34.7734 0.820312 33.5615V4.79492C0.820312 3.58312 1.23156 2.42777 1.95312 1.58203C2.67361 0.737614 3.64052 0.273447 4.6377 0.273438ZM4.6377 0.494141C3.63856 0.49415 2.69112 0.959526 2 1.76953C1.31006 2.57819 0.927734 3.66711 0.927734 4.79492V33.5615C0.927734 34.6894 1.31001 35.7782 2 36.5869C2.69111 37.3968 3.63858 37.8623 4.6377 37.8623H106.909C107.908 37.8622 108.856 37.3967 109.547 36.5869C110.237 35.7781 110.618 34.6893 110.618 33.5615V4.79492C110.618 3.66725 110.237 2.57824 109.547 1.76953C108.856 0.959686 107.908 0.49429 106.909 0.494141H4.6377Z" fill="#A6A6A6" stroke="#393E45" stroke-width="0.546798"/>
<path d="M27.7552 18.287C27.7326 15.7651 29.8161 14.5381 29.9114 14.481C28.7314 12.7572 26.9024 12.5217 26.2597 12.5028C24.7236 12.3409 23.2336 13.4239 22.4511 13.4239C21.653 13.4239 20.4479 12.5185 19.1493 12.5451C17.4781 12.571 15.9146 13.5405 15.0572 15.046C13.2875 18.1157 14.6073 22.6268 16.3028 25.108C17.1508 26.3233 18.1419 27.6801 19.439 27.6324C20.7081 27.58 21.1821 26.8218 22.7135 26.8218C24.2308 26.8218 24.676 27.6324 25.9989 27.6019C27.3609 27.58 28.2183 26.3812 29.0368 25.1551C30.0168 23.7622 30.4104 22.3905 30.426 22.32C30.394 22.3091 27.781 21.3099 27.7552 18.287Z" fill="white"/>
<path d="M25.2559 10.8705C25.9385 10.0152 26.4054 8.85168 26.2758 7.6709C25.2879 7.71472 24.0525 8.35558 23.3411 9.19207C22.7116 9.92921 22.1493 11.1373 22.2946 12.2735C23.4043 12.3565 24.5437 11.7125 25.2559 10.8705Z" fill="white"/>
<path d="M47.5962 27.4584H45.8226L44.8511 24.3996H41.4743L40.549 27.4584H38.8223L42.1678 17.0449H44.2342L47.5962 27.4584ZM44.5583 23.1163L43.6797 20.3972C43.5868 20.1194 43.4126 19.4652 43.1557 18.4355H43.1245C43.0222 18.8783 42.8574 19.5325 42.6309 20.3972L41.768 23.1163H44.5583Z" fill="white"/>
<path d="M56.1991 23.6111C56.1991 24.8882 55.8547 25.8976 55.1659 26.6386C54.549 27.2983 53.7829 27.6277 52.8684 27.6277C51.8813 27.6277 51.1722 27.2724 50.7403 26.5619H50.7091V30.5174H49.0441V22.421C49.0441 21.6181 49.0231 20.7942 48.9824 19.9491H50.4467L50.5396 21.1392H50.5709C51.1261 20.2425 51.9687 19.7949 53.0995 19.7949C53.9836 19.7949 54.7215 20.1447 55.3119 20.845C55.9039 21.5461 56.1991 22.4679 56.1991 23.6111ZM54.5029 23.6722C54.5029 22.9414 54.3389 22.3388 54.0093 21.8646C53.6493 21.3701 53.1659 21.1228 52.5599 21.1228C52.1491 21.1228 51.7758 21.2605 51.4424 21.5321C51.1082 21.8059 50.8895 22.1635 50.7872 22.6064C50.7357 22.813 50.7099 22.982 50.7099 23.1151V24.367C50.7099 24.9132 50.877 25.3741 51.2112 25.7505C51.5455 26.1268 51.9797 26.3147 52.5138 26.3147C53.1409 26.3147 53.6291 26.0721 53.9781 25.5885C54.3279 25.1042 54.5029 24.4657 54.5029 23.6722Z" fill="white"/>
<path d="M64.8194 23.6111C64.8194 24.8882 64.475 25.8976 63.7854 26.6386C63.1692 27.2983 62.4031 27.6277 61.4887 27.6277C60.5016 27.6277 59.7924 27.2724 59.3614 26.5619H59.3302V30.5174H57.6652V22.421C57.6652 21.6181 57.6441 20.7942 57.6035 19.9491H59.0677L59.1607 21.1392H59.1919C59.7464 20.2425 60.589 19.7949 61.7206 19.7949C62.6038 19.7949 63.3419 20.1447 63.9338 20.845C64.5234 21.5461 64.8194 22.4679 64.8194 23.6111ZM63.1231 23.6722C63.1231 22.9414 62.9584 22.3388 62.6288 21.8646C62.2688 21.3701 61.787 21.1228 61.1802 21.1228C60.7686 21.1228 60.3961 21.2605 60.0619 21.5321C59.7277 21.8059 59.5098 22.1635 59.4074 22.6064C59.3567 22.813 59.3302 22.982 59.3302 23.1151V24.367C59.3302 24.9132 59.4973 25.3741 59.8299 25.7505C60.1642 26.1261 60.5984 26.3147 61.1342 26.3147C61.7612 26.3147 62.2493 26.0721 62.5984 25.5885C62.9483 25.1042 63.1231 24.4657 63.1231 23.6722Z" fill="white"/>
<path d="M74.4568 24.5383C74.4568 25.4241 74.1504 26.1448 73.5339 26.7012C72.8568 27.3091 71.9145 27.6128 70.7032 27.6128C69.5849 27.6128 68.6884 27.3968 68.0098 26.964L68.3955 25.5736C69.1265 26.0164 69.9285 26.2387 70.8024 26.2387C71.4295 26.2387 71.9175 26.0962 72.2682 25.813C72.6173 25.5298 72.7911 25.1495 72.7911 24.6753C72.7911 24.2527 72.648 23.8966 72.3596 23.608C72.0729 23.3192 71.5942 23.0508 70.9258 22.8028C69.1062 22.1228 68.1971 21.1267 68.1971 19.8168C68.1971 18.9607 68.5158 18.2588 69.1538 17.7126C69.7895 17.1657 70.6376 16.8926 71.6981 16.8926C72.6438 16.8926 73.4292 17.0577 74.0568 17.3871L73.6401 18.7471C73.0543 18.4279 72.3925 18.2682 71.6513 18.2682C71.0655 18.2682 70.6079 18.413 70.2799 18.7009C70.0027 18.9584 69.8637 19.2722 69.8637 19.6438C69.8637 20.0554 70.0222 20.3958 70.3408 20.6634C70.6181 20.9107 71.1217 21.1783 71.8527 21.4671C72.7472 21.8278 73.4034 22.2495 73.8264 22.7331C74.2474 23.2151 74.4568 23.8184 74.4568 24.5383Z" fill="white"/>
<path d="M79.9601 21.202H78.1247V24.8476C78.1247 25.7749 78.4486 26.2382 79.0965 26.2382C79.3939 26.2382 79.641 26.2123 79.8358 26.1607L79.8819 27.4276C79.5544 27.5504 79.1223 27.6122 78.5876 27.6122C77.9299 27.6122 77.4161 27.4111 77.0447 27.0097C76.6754 26.6075 76.4897 25.933 76.4897 24.9854V21.2004H75.3965V19.9485H76.4897V18.5737L78.1247 18.0791V19.9485H79.9601V21.202Z" fill="white"/>
<path d="M88.2423 23.6418C88.2423 24.796 87.9128 25.7436 87.2552 26.4846C86.5654 27.2476 85.6502 27.6278 84.5095 27.6278C83.41 27.6278 82.5345 27.2624 81.8818 26.5316C81.2284 25.8007 80.9023 24.8781 80.9023 23.7662C80.9023 22.6027 81.2381 21.6496 81.9118 20.9086C82.5841 20.1668 83.4916 19.7959 84.6331 19.7959C85.7326 19.7959 86.6171 20.1613 87.2845 20.8929C87.9233 21.6026 88.2423 22.5189 88.2423 23.6418ZM86.5145 23.6958C86.5145 23.0033 86.3672 22.4094 86.0684 21.9141C85.7193 21.3147 85.2202 21.0158 84.573 21.0158C83.9042 21.0158 83.396 21.3155 83.0469 21.9141C82.7475 22.4102 82.6002 23.0135 82.6002 23.7271C82.6002 24.4196 82.7475 25.0136 83.0469 25.5081C83.4065 26.1075 83.9098 26.4064 84.5584 26.4064C85.1943 26.4064 85.6935 26.1012 86.053 25.4925C86.3602 24.9877 86.5145 24.3875 86.5145 23.6958Z" fill="white"/>
<path d="M93.6538 21.4162C93.489 21.3857 93.3138 21.3701 93.1295 21.3701C92.5438 21.3701 92.0907 21.5915 91.7717 22.0352C91.4945 22.4265 91.3556 22.921 91.3556 23.518V27.4579H89.6913L89.7074 22.3138C89.7074 21.4483 89.6857 20.6603 89.6445 19.9499H91.0952L91.1559 21.3865H91.202C91.3773 20.8928 91.6551 20.4953 92.0342 20.1971C92.4056 19.9287 92.8056 19.7949 93.2377 19.7949C93.3913 19.7949 93.5309 19.8059 93.6538 19.8254V21.4162Z" fill="white"/>
<path d="M101.099 23.3487C101.099 23.6476 101.08 23.8995 101.039 24.1053H96.0437C96.0633 24.8471 96.3048 25.4144 96.7684 25.8057C97.1893 26.1554 97.7339 26.3307 98.402 26.3307C99.142 26.3307 99.8163 26.2126 100.423 25.9754L100.684 27.1335C99.9748 27.4434 99.1378 27.5976 98.1716 27.5976C97.0099 27.5976 96.0975 27.2548 95.4336 26.5702C94.7718 25.8855 94.4395 24.966 94.4395 23.8126C94.4395 22.6803 94.748 21.7375 95.3659 20.9855C96.0123 20.1826 96.8863 19.7812 97.9859 19.7812C99.0659 19.7812 99.8833 20.1826 100.439 20.9855C100.879 21.6233 101.099 22.4119 101.099 23.3487ZM99.5119 22.9159C99.5231 22.4214 99.4142 21.9941 99.1887 21.6334C98.9004 21.1693 98.4578 20.9377 97.8616 20.9377C97.3178 20.9377 96.8745 21.1639 96.5366 21.6177C96.2594 21.9785 96.0947 22.4112 96.0437 22.9151H99.5119V22.9159Z" fill="white"/>
<path d="M44.7907 14.5003H43.9247V13.2059H40.4641V14.5003H39.5836L39.5547 12.4755H39.9769C40.1862 12.273 40.3534 11.9789 40.4785 11.5933C40.6036 11.2052 40.6842 10.7665 40.7203 10.2772L40.8574 7.94141H44.1701V12.4755H44.8376L44.7907 14.5003ZM41.0089 12.4755H43.2607V8.67901H41.7271L41.6404 10.1615C41.5755 11.1522 41.365 11.9235 41.0089 12.4755Z" fill="white"/>
<path d="M45.6445 11.2129C45.6445 10.8297 45.7203 10.485 45.8718 10.1789C46.0234 9.87032 46.2363 9.6341 46.5105 9.4702C46.7848 9.30387 47.1 9.2207 47.456 9.2207C47.9829 9.2207 48.4098 9.39064 48.737 9.73049C49.0666 10.0704 49.2446 10.5211 49.2711 11.0828L49.2747 11.2889C49.2747 11.6746 49.2002 12.0193 49.051 12.323C48.9042 12.6267 48.6925 12.8618 48.4159 13.0281C48.1416 13.1944 47.824 13.2775 47.4632 13.2775C46.9123 13.2775 46.4709 13.0943 46.1389 12.7279C45.8093 12.3592 45.6445 11.8686 45.6445 11.2564V11.2129ZM46.5214 11.2889C46.5214 11.6915 46.6044 12.0072 46.7704 12.2363C46.9364 12.4628 47.1673 12.5761 47.4632 12.5761C47.7591 12.5761 47.9889 12.4604 48.1524 12.229C48.3184 11.9976 48.4014 11.6589 48.4014 11.2129C48.4014 10.8177 48.3161 10.5043 48.1452 10.2729C47.9769 10.0415 47.7471 9.92579 47.456 9.92579C47.1697 9.92579 46.9424 10.0403 46.774 10.2692C46.6056 10.4958 46.5214 10.8357 46.5214 11.2889Z" fill="white"/>
<path d="M51.9908 12.5761C52.2098 12.5761 52.3914 12.5122 52.5357 12.3845C52.6801 12.2567 52.7571 12.0988 52.7667 11.9108H53.5931C53.5834 12.1543 53.5076 12.382 53.3657 12.5942C53.2238 12.8039 53.0313 12.9702 52.7884 13.0931C52.5453 13.216 52.2831 13.2775 52.0017 13.2775C51.4556 13.2775 51.0226 13.1004 50.7026 12.7461C50.3827 12.3917 50.2227 11.9024 50.2227 11.2781V11.1876C50.2227 10.5923 50.3815 10.1162 50.699 9.75945C51.0166 9.40029 51.4496 9.2207 51.9981 9.2207C52.4623 9.2207 52.8401 9.3569 53.1311 9.62927C53.4246 9.89928 53.5786 10.2548 53.5931 10.6959H52.7667C52.7571 10.4718 52.6801 10.2874 52.5357 10.1427C52.3938 9.99812 52.2122 9.92579 51.9908 9.92579C51.707 9.92579 51.4881 10.0294 51.3341 10.2367C51.1801 10.4416 51.1019 10.7538 51.0996 11.1732V11.3142C51.0996 11.7385 51.1753 12.0554 51.3269 12.2651C51.4809 12.4725 51.7022 12.5761 51.9908 12.5761Z" fill="white"/>
<path d="M57.6965 9.99079H56.4298V13.2052H55.553V9.99079H54.3008V9.29297H57.6965V9.99079Z" fill="white"/>
<path d="M60.0609 11.9469L60.8548 9.29297H61.7893L60.2377 13.7982C59.9995 14.4562 59.5954 14.7853 59.0252 14.7853C58.8978 14.7853 58.757 14.7636 58.603 14.7201V14.0404L58.769 14.0513C58.9903 14.0513 59.1563 14.0103 59.267 13.9283C59.3801 13.8488 59.4691 13.7138 59.534 13.5234L59.6603 13.1871L58.2891 9.29297H59.2345L60.0609 11.9469Z" fill="white"/>
<path d="M65.9777 13.2052H65.1009V10.0016H63.5781V13.2052H62.7012V9.29297H65.9777V13.2052Z" fill="white"/>
<path d="M70.5874 13.2052H69.7105V11.6251H68.1914V13.2052H67.3145V9.29297H68.1914V10.9237H69.7105V9.29297H70.5874V13.2052Z" fill="white"/>
<path d="M71.7285 11.2129C71.7285 10.8297 71.8043 10.485 71.9558 10.1789C72.1074 9.87032 72.3203 9.6341 72.5943 9.4702C72.8687 9.30387 73.1842 9.2207 73.5403 9.2207C74.0666 9.2207 74.4939 9.39064 74.8213 9.73049C75.1508 10.0704 75.3288 10.5211 75.3554 11.0828L75.3588 11.2889C75.3588 11.6746 75.2841 12.0193 75.1347 12.323C74.9881 12.6267 74.7766 12.8618 74.5002 13.0281C74.2258 13.1944 73.9082 13.2775 73.5472 13.2775C72.9964 13.2775 72.5545 13.0943 72.2228 12.7279C71.8933 12.3592 71.7285 11.8686 71.7285 11.2564V11.2129ZM72.6055 11.2889C72.6055 11.6915 72.6886 12.0072 72.854 12.2363C73.0202 12.4628 73.2512 12.5761 73.5472 12.5761C73.8432 12.5761 74.0729 12.4604 74.2363 12.229C74.4024 11.9976 74.4855 11.6589 74.4855 11.2129C74.4855 10.8177 74.4003 10.5043 74.2293 10.2729C74.0611 10.0415 73.8314 9.92579 73.5403 9.92579C73.254 9.92579 73.0264 10.0403 72.8582 10.2692C72.6893 10.4958 72.6055 10.8357 72.6055 11.2889Z" fill="white"/>
<path d="M78.7461 13.2052V9.29297H80.3308C80.8649 9.29297 81.2712 9.38698 81.5504 9.57501C81.829 9.76059 81.9686 10.0281 81.9686 10.3777C81.9686 10.5584 81.912 10.7211 81.7989 10.8658C81.6886 11.008 81.5239 11.1177 81.3047 11.1949C81.5595 11.2479 81.7619 11.3551 81.9113 11.5166C82.06 11.6781 82.1347 11.8685 82.1347 12.0879C82.1347 12.4519 82 12.7291 81.7305 12.9196C81.4638 13.11 81.0785 13.2052 80.5758 13.2052H78.7461ZM79.6229 11.5383V12.511H80.5828C81.0331 12.511 81.2579 12.3495 81.2579 12.0265C81.2579 11.701 81.0296 11.5383 80.5724 11.5383H79.6229ZM79.6229 10.9092H80.3448C80.8432 10.9092 81.0917 10.7621 81.0917 10.4681C81.0917 10.1595 80.8565 10.0004 80.3846 9.99079H79.6229V10.9092Z" fill="white"/>
</g>
<defs>
<clipPath id="clip0_209_1608">
<rect width="111" height="40" fill="white"/>
</clipPath>
</defs>
</svg>
