<svg width="111" height="40" viewBox="0 0 111 40" fill="none" xmlns="http://www.w3.org/2000/svg">
<path d="M107 0.5H4C2.067 0.5 0.5 2.067 0.5 4V36C0.5 37.933 2.067 39.5 4 39.5H107C108.933 39.5 110.5 37.933 110.5 36V4C110.5 2.067 108.933 0.5 107 0.5Z" fill="#1A1C20" stroke="#393E45" stroke-width="0.547945"/>
<path d="M46.5318 26.8315C48.2572 26.3896 49.3942 25.0676 49.3942 23.3392C49.3942 21.2011 47.6832 19.6973 45.2835 19.6973H41.0078V31.2041H42.9807V26.9741H44.3796L47.4393 31.2041H49.7566L46.5318 26.828V26.8315ZM45.2835 21.4933C46.5175 21.4933 47.3712 22.2452 47.3712 23.3392C47.3712 24.4333 46.5175 25.1851 45.2835 25.1851H42.9807V21.4969H45.2835V21.4933Z" fill="white"/>
<path d="M53.8772 31.2036C54.8559 31.2036 55.7568 30.6924 56.2681 29.8393L56.6237 31.0478H57.958V22.9844H56.1733V27.6525C56.1733 28.8001 55.4113 29.6057 54.3716 29.6057C53.3319 29.6057 52.6343 28.8001 52.6343 27.6525V22.9844H50.8496V27.8522C50.8496 29.7919 52.1534 31.2036 53.8772 31.2036Z" fill="white"/>
<path d="M63.9317 31.2041C66.0499 31.2041 67.8 29.9987 67.8 28C67.8 25.7624 65.9701 25.1113 64.3935 24.5709C63.1678 24.1587 62.1017 23.7776 62.1017 22.7766C62.1017 21.9037 62.9142 21.443 63.8692 21.443C64.8727 21.443 65.5881 21.9661 65.9874 22.8563L67.8035 22.5549C67.2306 20.8092 65.7825 19.6973 63.8067 19.6973C61.8309 19.6973 60.1468 20.8715 60.1468 22.8702C60.1468 25.1251 61.9767 25.7416 63.5533 26.2647C64.7617 26.6596 65.8451 27.0406 65.8451 28.0589C65.8451 28.9492 65.0325 29.4549 63.949 29.4549C62.706 29.4549 62.0392 28.8695 61.4489 27.8061L59.6016 28.1248C60.1433 30.0125 61.8621 31.2041 63.9317 31.2041Z" fill="white"/>
<path d="M73.1471 29.5685C72.5039 29.5685 72.1913 29.2579 72.1913 28.6187V24.3337H74.746V22.6983H72.1913V20.2451H70.7757L70.2978 22.6983H68.8965V24.3337H70.2978V28.6187C70.2978 30.2863 71.2679 31.204 73.1471 31.204H74.746L74.9113 29.5685H73.1471Z" fill="white"/>
<path d="M79.8315 31.2036C82.3963 31.2036 84.2058 29.3857 84.2058 26.82C84.2058 24.2544 82.3963 22.4365 79.8315 22.4365C77.2665 22.4365 75.457 24.2544 75.457 26.82C75.457 29.3857 77.2665 31.2036 79.8315 31.2036ZM79.8315 29.4992C78.3516 29.4992 77.3455 28.4112 77.3455 26.82C77.3455 25.229 78.3516 24.141 79.8315 24.141C81.3113 24.141 82.3173 25.229 82.3173 26.82C82.3173 28.4112 81.3113 29.4992 79.8315 29.4992Z" fill="white"/>
<path d="M87.6237 31.2036V26.3521C87.6237 25.3101 88.1191 24.7235 89.2009 24.7235H90.222L90.067 22.9844H89.7266C88.783 22.9844 88.0584 23.2536 87.5158 24.1714L87.1755 22.9844H85.8477V31.2036H87.6237Z" fill="white"/>
<path d="M99.5163 26.7208C99.5163 24.2864 97.704 22.4365 95.142 22.4365C92.5803 22.4365 90.7676 24.2721 90.7676 26.8201C90.7676 29.368 92.5803 31.2036 95.142 31.2036C96.8912 31.2036 98.5449 30.3745 99.1738 28.7691L97.4243 28.475C97.0179 29.0775 96.2409 29.4992 95.255 29.4992C93.8311 29.4992 92.8912 28.6238 92.711 27.3233H99.4807C99.4985 27.1461 99.5126 26.9512 99.5126 26.7208M95.1384 24.0595C96.3045 24.0595 97.1812 24.8073 97.4881 25.8597H92.8241C93.1314 24.7718 94.0078 24.0595 95.142 24.0595" fill="white"/>
<path d="M13.0593 29.6259C14.6362 31.204 17.171 31.204 22.2442 31.204H23.1393C28.2126 31.204 30.7474 31.204 32.3243 29.6259C33.9011 28.0478 33.9011 25.5052 33.9011 20.4201V19.5222C33.9011 14.4371 33.9011 11.8945 32.3243 10.3164C30.7474 8.73828 28.209 8.73828 23.1393 8.73828H22.2442C17.171 8.73828 14.6326 8.73828 13.0593 10.3164C11.4824 11.8981 11.4824 14.4406 11.4824 19.5222V20.4201C11.4824 25.5052 11.4824 28.0478 13.0593 29.6259Z" fill="#0077FF"/>
<path fill-rule="evenodd" clip-rule="evenodd" d="M28.731 23.5399L27.2304 23.1748C27.0502 23.1241 26.922 22.9651 26.915 22.7826L26.7279 17.3969C26.6724 16.6835 26.1318 16.1156 25.5634 15.9499C25.5322 15.9398 25.4976 15.9499 25.4802 15.9803C25.4594 16.0074 25.4699 16.0446 25.4941 16.0649C25.6327 16.1696 26.0209 16.5145 26.0209 17.1096V24.1518C26.0209 24.8313 25.3589 25.3317 24.6797 25.166L23.1548 24.7941C22.9849 24.7366 22.8672 24.5845 22.8636 24.4054L22.6765 19.0197C22.6211 18.3063 22.0804 17.7384 21.5121 17.5727C21.4809 17.5626 21.4463 17.5727 21.4289 17.6031C21.4081 17.6302 21.4185 17.6673 21.4428 17.6876C21.5814 17.7924 21.9695 18.1373 21.9695 18.7323V24.6015V25.7746C21.9695 26.4541 21.3111 26.9545 20.6319 26.7888L16.3275 25.7407C15.7279 25.5954 15.3086 25.0713 15.3086 24.473V17.4205C15.3086 16.741 15.9671 16.2406 16.6463 16.4063L19.36 17.0656V15.7944C19.36 15.1148 20.0184 14.6144 20.6977 14.7801L23.4112 15.4394V14.1682C23.4112 13.4887 24.0697 12.9883 24.749 13.154L29.0533 14.202C29.6528 14.3474 30.0721 14.8714 30.0721 15.4698V22.5222C30.0721 23.2017 29.4137 23.7021 28.7344 23.5364" fill="white"/>
<path d="M43.8743 14.2177C43.3275 14.2177 42.836 14.1019 42.3996 13.8701C41.9634 13.6332 41.6209 13.3058 41.3723 12.8876C41.1293 12.4693 41.0078 11.9983 41.0078 11.4742C41.0078 10.9502 41.1293 10.4816 41.3723 10.0685C41.6209 9.65026 41.9606 9.32528 42.3913 9.0935C42.8277 8.85669 43.3193 8.73828 43.8661 8.73828C44.457 8.73828 44.9818 8.87432 45.4402 9.14641C45.9042 9.41345 46.2355 9.77623 46.4344 10.2347L45.5893 10.3557C45.4347 10.0735 45.2055 9.85433 44.9017 9.69813C44.6035 9.5369 44.2665 9.45628 43.8909 9.45628C43.5043 9.45628 43.1591 9.54194 42.8553 9.71325C42.557 9.88456 42.3223 10.1239 42.1511 10.4312C41.9854 10.7336 41.9025 11.0812 41.9025 11.4742C41.9025 11.8723 41.9854 12.225 42.1511 12.5324C42.3223 12.8347 42.5598 13.0715 42.8636 13.2428C43.1674 13.4141 43.5154 13.4997 43.9075 13.4997C44.2941 13.4997 44.6366 13.4192 44.9349 13.2579C45.2386 13.0917 45.4706 12.8599 45.6308 12.5626L46.4758 12.6835C46.2659 13.1521 45.9263 13.5249 45.4567 13.802C44.9873 14.0792 44.4598 14.2177 43.8743 14.2177Z" fill="white"/>
<path d="M50.3042 14.2175H49.3616L47.966 12.6298H47.7395V14.2175H47.0234V10.3818H47.7395V11.9324H47.9587L49.2958 10.3818H50.1581L48.5359 12.2366L50.3042 14.2175Z" fill="white"/>
<path d="M52.5905 10.3818C53.0666 10.3818 53.441 10.5318 53.7139 10.8318C53.9916 11.127 54.1304 11.5413 54.1304 12.0747V14.146H53.6097L53.4386 13.5675C53.3146 13.7532 53.1485 13.908 52.9401 14.0318C52.7318 14.1556 52.4814 14.2175 52.1887 14.2175C51.9308 14.2175 51.7002 14.1675 51.4968 14.0675C51.2935 13.9675 51.1348 13.8294 51.0207 13.6532C50.9066 13.4723 50.8496 13.2699 50.8496 13.0461C50.8496 12.6984 50.9935 12.4199 51.2811 12.2104C51.5687 12.0009 51.9853 11.8961 52.531 11.8961H53.4014C53.3815 11.6056 53.2972 11.3818 53.1485 11.2247C52.9996 11.0627 52.8012 10.9818 52.5532 10.9818C52.3648 10.9818 52.1987 11.0247 52.0548 11.1104C51.9109 11.1961 51.8018 11.308 51.7274 11.4461L51.0505 11.339C51.1497 11.0438 51.3406 10.8104 51.6233 10.639C51.906 10.4676 52.2284 10.3818 52.5905 10.3818ZM52.3449 13.6247C52.6574 13.6247 52.9103 13.527 53.1038 13.3318C53.3022 13.1318 53.4014 12.858 53.4014 12.5104V12.4675H52.5532C51.9085 12.4675 51.5861 12.6532 51.5861 13.0247C51.5861 13.2056 51.6556 13.3508 51.7944 13.4603C51.9333 13.5698 52.1168 13.6247 52.3449 13.6247Z" fill="white"/>
<path d="M57.18 12.8227C57.0529 12.8771 56.902 12.9192 56.7272 12.9488C56.5525 12.9785 56.3803 12.9933 56.2109 12.9933C55.7184 12.9933 55.3398 12.8647 55.0749 12.6075C54.8101 12.3503 54.6777 11.9868 54.6777 11.517V10.3818H55.4562V11.517C55.4562 12.066 55.7396 12.3405 56.3062 12.3405C56.6504 12.3405 56.9417 12.2835 57.18 12.1698V10.3818H57.9585V14.2175H57.18V12.8227Z" fill="white"/>
<path d="M60.7955 10.3818C61.2716 10.3818 61.6461 10.5318 61.9189 10.8318C62.1966 11.127 62.3355 11.5413 62.3355 12.0747V14.146H61.8147L61.6436 13.5675C61.5196 13.7532 61.3535 13.908 61.1451 14.0318C60.9368 14.1556 60.6864 14.2175 60.3938 14.2175C60.1359 14.2175 59.9052 14.1675 59.7019 14.0675C59.4985 13.9675 59.3398 13.8294 59.2258 13.6532C59.1117 13.4723 59.0547 13.2699 59.0547 13.0461C59.0547 12.6984 59.1985 12.4199 59.4862 12.2104C59.7738 12.0009 60.1904 11.8961 60.7359 11.8961H61.6064C61.5866 11.6056 61.5022 11.3818 61.3535 11.2247C61.2047 11.0627 61.0063 10.9818 60.7583 10.9818C60.5698 10.9818 60.4037 11.0247 60.2599 11.1104C60.116 11.1961 60.0069 11.308 59.9325 11.4461L59.2555 11.339C59.3548 11.0438 59.5457 10.8104 59.8284 10.639C60.1111 10.4676 60.4335 10.3818 60.7955 10.3818ZM60.55 13.6247C60.8624 13.6247 61.1154 13.527 61.3089 13.3318C61.5072 13.1318 61.6064 12.858 61.6064 12.5104V12.4675H60.7583C60.1135 12.4675 59.7912 12.6532 59.7912 13.0247C59.7912 13.2056 59.8606 13.3508 59.9995 13.4603C60.1383 13.5698 60.3218 13.6247 60.55 13.6247Z" fill="white"/>
<path d="M64.453 14.2177H63.4277V10.2941H64.0994V13.383H64.2055L65.6833 10.2941H66.7085V14.2177H66.0368V11.1365H65.9307L64.453 14.2177ZM65.0752 9.78561C64.7688 9.78561 64.5119 9.69959 64.3045 9.52757C64.1018 9.35049 63.9816 9.08739 63.9439 8.73828H64.5095C64.5331 8.90018 64.5921 9.02414 64.6863 9.11016C64.7853 9.19112 64.9149 9.23159 65.0752 9.23159C65.2354 9.23159 65.3627 9.19112 65.457 9.11016C65.556 9.02414 65.6149 8.90018 65.6338 8.73828H66.2065C66.1641 9.08739 66.0392 9.35049 65.8318 9.52757C65.6291 9.69959 65.3768 9.78561 65.0752 9.78561Z" fill="white"/>
<path d="M69.7957 14.2175H69.0906V11.0495H67.8027V10.3818H71.0835V11.0495H69.7957V14.2175Z" fill="white"/>
<path d="M75.4584 12.2747C75.4584 12.3699 75.4561 12.4437 75.4512 12.4961H72.3675C72.406 12.8247 72.536 13.0866 72.7575 13.2817C72.979 13.477 73.2607 13.5746 73.6024 13.5746C73.8384 13.5746 74.0478 13.5294 74.2307 13.4389C74.4185 13.3437 74.5606 13.2199 74.6569 13.0675L75.3212 13.1746C75.1768 13.508 74.9433 13.7651 74.6207 13.946C74.303 14.127 73.9491 14.2175 73.5592 14.2175C73.1885 14.2175 72.8562 14.1365 72.5625 13.9746C72.2688 13.808 72.0402 13.5794 71.8764 13.289C71.7127 12.9985 71.6309 12.6699 71.6309 12.3032C71.6309 11.9318 71.7127 11.6009 71.8764 11.3104C72.0402 11.0199 72.2664 10.7937 72.5553 10.6318C72.8442 10.4652 73.1739 10.3818 73.5447 10.3818C73.9106 10.3818 74.238 10.4652 74.5269 10.6318C74.8205 10.7937 75.0492 11.0199 75.213 11.3104C75.3767 11.5961 75.4584 11.9175 75.4584 12.2747ZM73.5447 11.0033C73.2607 11.0033 73.0151 11.0866 72.8081 11.2532C72.6059 11.4199 72.471 11.6438 72.4037 11.9246H74.6857C74.6232 11.6485 74.4884 11.4271 74.2813 11.2604C74.0791 11.089 73.8336 11.0033 73.5447 11.0033Z" fill="white"/>
<path d="M79.2167 14.2175H78.1914V10.3818H78.8631V13.4014H78.9692L80.447 10.3818H81.4722V14.2175H80.8005V11.2053H80.6945L79.2167 14.2175Z" fill="white"/>
<path d="M85.1104 12.2603C85.3223 12.3175 85.4982 12.4223 85.6378 12.5746C85.7774 12.7223 85.8472 12.9056 85.8472 13.1246C85.8472 13.3294 85.7825 13.5151 85.6533 13.6817C85.524 13.8437 85.3379 13.9746 85.0949 14.0746C84.857 14.1698 84.5804 14.2175 84.2649 14.2175C83.841 14.2175 83.4764 14.127 83.1713 13.946C82.8664 13.7604 82.6647 13.5128 82.5664 13.2032L83.2722 13.0961C83.4428 13.4389 83.7712 13.6103 84.2572 13.6103C84.5261 13.6103 84.7304 13.5651 84.87 13.4746C85.0147 13.3794 85.0871 13.2485 85.0871 13.0817C85.0871 12.9342 85.0199 12.8151 84.8855 12.7246C84.7562 12.6342 84.5468 12.5889 84.2572 12.5889H83.7298V11.9747H84.2572C84.5054 11.9747 84.6941 11.9318 84.8234 11.8461C84.9578 11.7604 85.0251 11.6461 85.0251 11.5032C85.0251 11.3508 84.9527 11.2271 84.8079 11.1318C84.6683 11.0366 84.4951 10.989 84.2883 10.989C84.0866 10.989 83.9056 11.0342 83.7453 11.1247C83.5851 11.2151 83.4636 11.339 83.3808 11.4961L82.675 11.3818C82.7939 11.0627 82.9981 10.8175 83.2877 10.6461C83.5825 10.4699 83.9237 10.3818 84.3115 10.3818C84.5907 10.3818 84.8415 10.4271 85.0638 10.5175C85.2913 10.608 85.4672 10.7342 85.5912 10.8961C85.7205 11.058 85.7851 11.2389 85.7851 11.4389C85.7851 11.6438 85.7231 11.8175 85.5989 11.9604C85.4749 12.1032 85.3121 12.2033 85.1104 12.2603Z" fill="white"/>
</svg>
