<svg width="24" height="24" viewBox="0 0 24 24" fill="none" xmlns="http://www.w3.org/2000/svg">
<path d="M0 12C0 5.37258 5.37258 0 12 0C18.6274 0 24 5.37258 24 12C24 18.6274 18.6274 24 12 24C5.37258 24 0 18.6274 0 12Z" fill="#FF0000"/>
<path d="M18.1321 9.03622C17.9849 8.47072 17.5512 8.02541 17.0004 7.87427C16.0023 7.59961 11.9996 7.59961 11.9996 7.59961C11.9996 7.59961 7.99692 7.59961 6.99874 7.87427C6.44797 8.02541 6.01423 8.47072 5.86703 9.03622C5.59961 10.0611 5.59961 12.1996 5.59961 12.1996C5.59961 12.1996 5.59961 14.338 5.86703 15.363C6.01423 15.9285 6.44797 16.3738 6.99874 16.525C7.99692 16.7996 11.9996 16.7996 11.9996 16.7996C11.9996 16.7996 16.0023 16.7996 17.0004 16.525C17.5512 16.3738 17.9849 15.9285 18.1321 15.363C18.3996 14.338 18.3996 12.1996 18.3996 12.1996C18.3996 12.1996 18.3996 10.0611 18.1321 9.03622Z" fill="white"/>
<path d="M10.8008 14.4004V10.4004L14.0008 12.4005L10.8008 14.4004Z" fill="#FF0000"/>
</svg>
